# xmcd
#
# Track frame offsets:
#	150
#	11080
#	24109
#	40415
#	52652
#	66244
#	74811
#	88448
#	101829
#	113733
#	126707
#	139027
#	150194
#	165713
#	178041
#
# Disc length: 2536 seconds
#
# Revision: 0
# Processed by: cddbd v1.5.2PL0 Copyright (c) Steve Scherf et al.
# Submitted via: dBpowerAMP V4.0
#
DISCID=d109e60f
DTITLE=Various Artist - Blues - Definitive Collection CD5 The Roots and Blues Ladies
DYEAR=1900
DGENRE=Blues
TTITLE0=Robert Johnson - Love in Vain
TTITLE1=Lead Belly - The Midnight Special
TTITLE2=Mississippi John Hurt - Lonesome Blues
TTITLE3=Little Walter - Juke
TTITLE4=Bessie Smith - Alexander's Ragtime Band
TTITLE5=Billie Holiday - Please, Don't Talk About Me When I'm Gone
TTITLE6=Ella Fitzgerald - Basin Street Blues
TTITLE7=Nina Simone - Central Park Blues
TTITLE8=LaVern Baker - How Can You Leave a Man Like This
TTITLE9=Faye Adams - Shake a Hand
TTITLE10=Memphis Minnie - Ma Rainey
TTITLE11=Big Bill Broonzy - Jacqueline
TTITLE12=Louisiana Red - Lightning Bug
TTITLE13=Howlin' Wolf - Streamline Woman
TTITLE14=John Lee Hooker - I'm in the Mood for Love
EXTD=
EXTT0=
EXTT1=
EXTT2=
EXTT3=
EXTT4=
EXTT5=
EXTT6=
EXTT7=
EXTT8=
EXTT9=
EXTT10=
EXTT11=
EXTT12=
EXTT13=
EXTT14=
PLAYORDER=
